<svg width="1264" height="750" viewBox="0 0 1264 750" fill="none" xmlns="http://www.w3.org/2000/svg">
<path d="M421.888 210.656C418.574 179.643 404.606 155.495 379.985 138.213C355.601 120.931 323.877 112.29 284.815 112.29C257.353 112.29 233.797 116.433 214.147 124.719C194.497 133.005 179.464 144.25 169.048 158.455C158.631 172.659 153.304 188.876 153.067 207.105C153.067 222.257 156.5 235.396 163.366 246.523C170.468 257.65 180.056 267.119 192.13 274.932C204.204 282.508 217.58 288.9 232.258 294.108C246.936 299.316 261.732 303.696 276.647 307.247L344.829 324.293C372.291 330.685 398.688 339.326 424.019 350.216C449.587 361.106 472.433 374.837 492.556 391.409C512.916 407.981 529.014 427.986 540.852 451.423C552.689 474.861 558.607 502.323 558.607 533.81C558.607 576.423 547.717 613.947 525.937 646.381C504.157 678.578 472.67 703.791 431.477 722.02C390.52 740.012 340.923 749.009 282.684 749.009C226.103 749.009 176.978 740.249 135.312 722.73C93.8819 705.211 61.4482 679.643 38.0107 646.026C14.8099 612.408 2.26255 571.452 0.368609 523.156H129.985C131.879 548.488 139.692 569.558 153.423 586.366C167.154 603.175 185.028 615.723 207.045 624.009C229.299 632.295 254.156 636.438 281.619 636.438C310.264 636.438 335.359 632.176 356.903 623.653C378.683 614.894 395.728 602.82 408.039 587.432C420.35 571.807 426.623 553.578 426.86 532.744C426.623 513.805 421.06 498.18 410.17 485.869C399.28 473.322 384.01 462.905 364.36 454.619C344.947 446.097 322.22 438.521 296.178 431.892L213.437 410.585C153.541 395.197 106.192 371.878 71.3913 340.628C36.8269 309.141 19.5447 267.356 19.5447 215.273C19.5447 172.422 31.1451 134.899 54.3459 102.702C77.7834 70.5047 109.625 45.5284 149.871 27.7727C190.118 9.78027 235.691 0.784064 286.59 0.784064C338.2 0.784064 383.418 9.78027 422.244 27.7727C461.306 45.5284 491.964 70.268 514.218 101.991C536.472 133.478 547.954 169.7 548.664 210.656H421.888ZM676.061 738V10.7273H807.808V344.889H816.686L1100.42 10.7273H1261.29L980.038 337.077L1263.77 738H1105.39L888.419 426.21L807.808 521.381V738H676.061Z" fill="#001D59"/>
</svg>
